<svg width="309" height="198" viewBox="0 0 309 198" fill="none" xmlns="http://www.w3.org/2000/svg">
<path fill-rule="evenodd" clip-rule="evenodd" d="M162.55 171.599C145.287 187.794 122.244 197.683 96.9359 197.683C43.3997 197.683 0 153.43 0 98.8416C0 44.2529 43.3997 0 96.9359 0C150.472 0 193.872 44.2529 193.872 98.8416C193.872 117.097 189.018 134.197 180.555 148.872L204.622 166.748C211.086 171.55 211.876 180.218 206.387 186.11C200.898 192.001 191.208 192.885 184.743 188.083L162.55 171.599Z" fill="#C9D6DF"/>
<path d="M174.485 98.8409C174.485 142.512 139.765 177.914 96.9361 177.914C54.1072 177.914 19.3875 142.512 19.3875 98.8409C19.3875 55.1699 54.1072 19.7676 96.9361 19.7676C139.765 19.7676 174.485 55.1699 174.485 98.8409Z" fill="#F3F3F3" fill-opacity="0.97"/>
<ellipse cx="43.4075" cy="73.8217" rx="4.63357" ry="4.6332" fill="#C9D6DF"/>
<ellipse cx="62.7949" cy="73.913" rx="4.63357" ry="4.72452" fill="#C9D6DF"/>
<ellipse cx="121.17" cy="153.205" rx="4.84694" ry="4.94208" fill="#C9D6DF"/>
<path d="M41.1709 89.209C49.5548 84.3037 61.7739 87.5408 64.0464 89.8095" stroke="#C9D6DF" stroke-width="5.35392" stroke-linecap="round" stroke-linejoin="round"/>
<path d="M150.194 79.0742C158.326 96.126 158.135 125.483 135.71 138.379" stroke="#C9D6DF" stroke-width="8.2368" stroke-linecap="round"/>
<circle cx="233.09" cy="187.329" r="10.01" fill="#C9D6DF"/>
<circle cx="265.98" cy="187.329" r="10.01" fill="#C9D6DF"/>
<circle cx="298.87" cy="187.329" r="10.01" fill="#C9D6DF"/>
</svg>
