<svg width="20" height="20" viewBox="0 0 20 20" fill="none" xmlns="http://www.w3.org/2000/svg">
<path fill-rule="evenodd" clip-rule="evenodd" d="M9.99984 0.625C4.70505 0.625 0.416504 4.91354 0.416504 10.2083C0.416504 14.449 3.15973 18.0307 6.96911 19.3005C7.44827 19.3844 7.62796 19.0969 7.62796 18.8453C7.62796 18.6177 7.61598 17.863 7.61598 17.0604C5.20817 17.5036 4.58525 16.4734 4.39359 15.9344C4.28577 15.6589 3.81859 14.8083 3.4113 14.5807C3.07588 14.401 2.59671 13.9578 3.39932 13.9458C4.154 13.9339 4.69307 14.6406 4.87275 14.9281C5.73525 16.3776 7.11286 15.9703 7.6639 15.7187C7.74775 15.0958 7.99932 14.6766 8.27484 14.437C6.14255 14.1974 3.91442 13.3708 3.91442 9.70521C3.91442 8.66302 4.28577 7.80052 4.89671 7.12969C4.80088 6.8901 4.46546 5.90781 4.99255 4.5901C4.99255 4.5901 5.79515 4.33854 7.62796 5.5724C8.39463 5.35677 9.20921 5.24896 10.0238 5.24896C10.8384 5.24896 11.653 5.35677 12.4196 5.5724C14.2524 4.32656 15.055 4.5901 15.055 4.5901C15.5821 5.90781 15.2467 6.8901 15.1509 7.12969C15.7618 7.80052 16.1332 8.65104 16.1332 9.70521C16.1332 13.3828 13.8931 14.1974 11.7608 14.437C12.1082 14.7365 12.4077 15.3115 12.4077 16.2099C12.4077 17.4917 12.3957 18.5219 12.3957 18.8453C12.3957 19.0969 12.5754 19.3964 13.0545 19.3005C16.8399 18.0307 19.5832 14.437 19.5832 10.2083C19.5832 4.91354 15.2946 0.625 9.99984 0.625V0.625Z" fill="#1E2022"/>
</svg>
